<svg width="187" height="47" viewBox="0 0 187 47" fill="none" xmlns="http://www.w3.org/2000/svg">
<path d="M1.97367 47C0.888153 47 0 46.0386 0 44.8636V25.6364C0 24.4614 0.888153 23.5 1.97367 23.5H13.8157C14.9012 23.5 15.7894 24.4614 15.7894 25.6364V44.8636C15.7894 46.0386 14.9012 47 13.8157 47H1.97367Z" fill="#AA21EB"/>
<path d="M3.94735 21.3636C2.86183 21.3636 1.97367 20.4023 1.97367 19.2273V9.07954C1.97367 9.07954 5.92102 4.27273 7.40127 0L7.48781 0.0581013C9.59086 1.46985 11.6986 2.88473 12.7499 6.04591C13.8157 9.25045 13.8157 14.2495 13.8157 19.2273C13.8157 20.4023 12.9276 21.3636 11.842 21.3636H3.94735Z" fill="#AA21EB"/>
<path d="M29.9007 20.6004C31.6923 20.6004 33.2574 20.3057 34.5957 19.7162C35.9341 19.1267 36.9702 18.2846 37.7041 17.1899C38.4597 16.0741 38.8374 14.7478 38.8374 13.211C38.8374 11.5268 38.5028 10.1584 37.8337 9.10583C37.1861 8.03216 36.1823 7.25322 34.8224 6.76902C33.484 6.26377 31.7787 6.01114 29.7064 6.01114H16.6575C14.9789 6.01114 12.4787 1.02174 12.4787 1.02174H29.7064C32.1241 1.02174 34.2827 1.26384 36.1823 1.74804C38.0819 2.21119 39.6901 2.94803 41.0069 3.95854C42.3452 4.948 43.3598 6.21113 44.0505 7.74795C44.7413 9.28477 45.0867 11.1269 45.0867 13.2742C45.0867 15.1689 44.5902 16.8847 43.5972 18.4215C42.6042 19.9372 41.2227 21.1793 39.4526 22.1477C39.0394 22.3766 38.6094 22.586 38.1624 22.7761C39.4053 23.1019 40.5153 23.5977 41.4925 24.2635C43.0683 25.3161 44.2664 26.6635 45.0867 28.3055C45.9285 29.9476 46.3495 31.7581 46.3495 33.737C46.3495 36.6002 45.7019 39.0212 44.4067 41.0001C43.1331 42.958 41.3306 44.4527 38.9993 45.4842C36.668 46.4947 33.9265 47 30.7749 47H16.6575C16.6575 47 18.3361 42.0422 20.1868 42.0422H30.7749C32.7609 42.0422 34.4446 41.7053 35.8261 41.0317C37.2292 40.358 38.2978 39.4106 39.0317 38.1896C39.7656 36.9475 40.1326 35.4844 40.1326 33.8002C40.1326 32.095 39.8196 30.6213 39.1936 29.3792C38.5676 28.1371 37.5854 27.1792 36.2471 26.5056C34.9087 25.8319 33.1818 25.4951 31.0663 25.4951H19.3547C18.0102 24.2109 18.1985 21.6624 19.3547 20.6004H29.9007Z" fill="#AA21EB"/>
<path fill-rule="evenodd" clip-rule="evenodd" d="M169.875 45.4843C171.553 46.1795 173.422 46.527 175.483 46.527C177.434 46.527 179.121 46.2526 180.544 45.7039C181.985 45.1551 183.197 44.4417 184.182 43.5636C185.167 42.6855 185.979 41.7618 186.617 40.7922L183.553 38.3501C182.623 39.5758 181.538 40.5544 180.298 41.2861C179.057 42.0179 177.544 42.3837 175.756 42.3837C174.37 42.3837 173.13 42.1185 172.036 41.588C170.96 41.0575 170.039 40.3258 169.273 39.3928C168.525 38.4599 167.951 37.3806 167.549 36.155C167.201 35.0248 167.011 33.8266 166.98 32.5604H187V30.283C187 28.1976 186.763 26.2769 186.289 24.5207C185.815 22.7463 185.085 21.2097 184.1 19.9109C183.115 18.5939 181.848 17.5695 180.298 16.8377C178.766 16.106 176.942 15.7402 174.826 15.7402C173.167 15.7402 171.562 16.0786 170.011 16.7554C168.461 17.4323 167.075 18.4292 165.853 19.7463C164.631 21.0634 163.665 22.6732 162.953 24.5756C162.242 26.4598 161.886 28.6092 161.886 31.0238V32.1763C161.886 34.2617 162.206 36.1824 162.844 37.9385C163.482 39.6947 164.394 41.213 165.58 42.4935C166.783 43.774 168.215 44.7709 169.875 45.4843ZM167.128 28.4171H181.939V28.033C181.866 26.7159 181.592 25.4354 181.118 24.1915C180.662 22.9476 179.933 21.9232 178.93 21.1183C177.927 20.3134 176.559 19.9109 174.826 19.9109C173.677 19.9109 172.619 20.1579 171.653 20.6518C170.686 21.1274 169.856 21.8408 169.163 22.7921C168.47 23.7433 167.932 24.9049 167.549 26.2769C167.364 26.941 167.223 27.6544 167.128 28.4171Z" fill="#AA21EB"/>
<path d="M177.316 3.83152L172.008 11.8987H176.085L183.416 3.83152H177.316Z" fill="#AA21EB"/>
<path d="M157.263 20.1853V16.289H151.737V9.07242H146.676V16.289H141.259V20.1853H146.676V38.5971C146.676 40.5727 146.977 42.1459 147.579 43.3166C148.199 44.4691 149.029 45.2923 150.068 45.7862C151.108 46.2801 152.248 46.527 153.488 46.527C154.4 46.527 155.175 46.463 155.813 46.335C156.47 46.2252 156.999 46.1063 157.4 45.9783L157.373 41.8349C157.135 41.8898 156.78 41.963 156.306 42.0544C155.85 42.1276 155.412 42.1642 154.992 42.1642C154.427 42.1642 153.898 42.0819 153.406 41.9172C152.913 41.7526 152.512 41.4142 152.202 40.902C151.892 40.3898 151.737 39.6306 151.737 38.6245V20.1853H157.263Z" fill="#AA21EB"/>
<path fill-rule="evenodd" clip-rule="evenodd" d="M66.0554 46.527C63.9945 46.527 62.1251 46.1795 60.4472 45.4843C58.7876 44.7709 57.3559 43.774 56.1522 42.4935C54.9667 41.213 54.0548 39.6947 53.4165 37.9385C52.7782 36.1824 52.459 34.2617 52.459 32.1763V31.0238C52.459 28.6092 52.8146 26.4598 53.5259 24.5756C54.2372 22.6732 55.2038 21.0634 56.4257 19.7463C57.6477 18.4292 59.0338 17.4323 60.584 16.7554C62.1342 16.0786 63.7391 15.7402 65.3988 15.7402C67.5144 15.7402 69.3382 16.106 70.8702 16.8377C72.4204 17.5695 73.6879 18.5939 74.6728 19.9109C75.6576 21.2097 76.3871 22.7463 76.8613 24.5207C77.3355 26.2769 77.5726 28.1976 77.5726 30.283V32.5604H57.5522C57.584 33.8266 57.7739 35.0248 58.1219 36.155C58.5231 37.3806 59.0976 38.4599 59.8454 39.3928C60.6113 40.3258 61.5324 41.0575 62.6084 41.588C63.7027 42.1185 64.9428 42.3837 66.3289 42.3837C68.1162 42.3837 69.63 42.0179 70.8702 41.2861C72.1103 40.5544 73.1955 39.5758 74.1256 38.3501L77.1896 40.7922C76.5513 41.7618 75.7397 42.6855 74.7548 43.5636C73.77 44.4417 72.5572 45.1551 71.1164 45.7039C69.6938 46.2526 68.0068 46.527 66.0554 46.527ZM57.7003 28.4171C57.796 27.6544 57.9365 26.941 58.1219 26.2769C58.5049 24.9049 59.0429 23.7433 59.7359 22.7921C60.429 21.8408 61.2588 21.1274 62.2254 20.6518C63.192 20.1579 64.2498 19.9109 65.3988 19.9109C67.1314 19.9109 68.4992 20.3134 69.5023 21.1183C70.5054 21.9232 71.2349 22.9476 71.6909 24.1915C72.1651 25.4354 72.4386 26.7159 72.5116 28.033V28.4171H57.7003Z" fill="#AA21EB"/>
<path fill-rule="evenodd" clip-rule="evenodd" d="M101.05 42.8401C100.808 43.0935 100.552 43.3438 100.279 43.591C99.3486 44.4325 98.2361 45.1368 96.9412 45.7039C95.6646 46.2526 94.2238 46.527 92.6189 46.527C90.6127 46.527 88.8527 46.1337 87.339 45.3472C85.8435 44.5606 84.6763 43.5087 83.8373 42.1916C83.0166 40.8563 82.6063 39.3654 82.6063 37.719C82.6063 36.1276 82.9163 34.7282 83.5364 33.5208C84.1565 32.2952 85.0501 31.2799 86.2174 30.4751C87.3846 29.6519 88.7889 29.0299 90.4303 28.6092C92.0717 28.1885 93.9046 27.9781 95.929 27.9781H100.935V25.6183C100.935 24.4476 100.698 23.4323 100.224 22.5725C99.7681 21.6945 99.0751 21.0177 98.1449 20.542C97.2148 20.0664 96.0658 19.8286 94.698 19.8286C93.4213 19.8286 92.2997 20.0481 91.3331 20.4872C90.3847 20.9262 89.637 21.5024 89.0898 22.2158C88.5609 22.9293 88.2965 23.6976 88.2965 24.5207H83.2355C83.2355 23.4598 83.509 22.4079 84.0562 21.3652C84.6033 20.3225 85.3875 19.3804 86.4089 18.539C87.4484 17.6792 88.6886 17.0024 90.1294 16.5085C91.5884 15.9963 93.2116 15.7402 94.9989 15.7402C97.151 15.7402 99.0477 16.106 100.689 16.8377C102.349 17.5695 103.644 18.6762 104.574 20.1579C105.522 21.6213 105.996 23.4598 105.996 25.6732V39.5026C105.996 40.4904 106.078 41.5422 106.243 42.6581C106.425 43.774 106.689 44.7343 107.036 45.5392V45.9783H101.756C101.501 45.3929 101.3 44.6154 101.154 43.6459C101.114 43.3717 101.079 43.1031 101.05 42.8401ZM96.7497 31.5452H100.935V37.6311C100.762 37.9767 100.543 38.3262 100.279 38.6794C99.5857 39.6306 98.6465 40.4355 97.461 41.0941C96.2756 41.7526 94.9077 42.0819 93.3575 42.0819C92.1173 42.0819 91.0686 41.8624 90.2115 41.4233C89.3725 40.966 88.7433 40.3532 88.3238 39.5849C87.9044 38.8166 87.6946 37.966 87.6946 37.0331C87.6946 36.1184 87.8952 35.3227 88.2965 34.6458C88.6977 33.9507 89.2813 33.3745 90.0473 32.9172C90.8133 32.4598 91.7617 32.1214 92.8924 31.9019C94.0232 31.6641 95.309 31.5452 96.7497 31.5452Z" fill="#AA21EB"/>
<path d="M132.067 16.289V37.8763C131.513 39.1607 130.646 40.1967 129.469 40.9843C128.21 41.8075 126.505 42.2191 124.353 42.2191C123.66 42.2191 122.985 42.1185 122.328 41.9172C121.69 41.716 121.106 41.3685 120.578 40.8745C120.067 40.3624 119.657 39.6764 119.347 38.8166C119.055 37.9385 118.909 36.8318 118.909 35.4965V16.289H113.848V35.4416C113.848 37.4172 114.076 39.1093 114.532 40.5178C115.006 41.9264 115.672 43.0697 116.529 43.9477C117.386 44.8258 118.407 45.4752 119.593 45.8959C120.796 46.3167 122.119 46.527 123.559 46.527C125.675 46.527 127.471 46.1886 128.949 45.5118C130.257 44.8962 131.343 44.0727 132.208 43.0411L132.314 45.9783H137.156V16.289H132.067Z" fill="#AA21EB"/>
</svg>
